<svg xmlns="http://www.w3.org/2000/svg" width="350" height="269" viewBox="0 0 350 269"><defs><linearGradient id="t10za" x1="0" x2="350" y1="134.5" y2="134.5" gradientUnits="userSpaceOnUse"><stop offset="0" stop-color="#2e3092"/><stop offset=".37" stop-color="#44b97b"/><stop offset=".68" stop-color="#fbb056"/><stop offset="1" stop-color="#fff229"/></linearGradient></defs><g><g><path fill="url(#t10za)" d="M340.28 33.99a4.86 4.86 0 0 1 9.72 0v53.4a4.86 4.86 0 0 1-9.72 0zm-24.31 59.24a4.86 4.86 0 0 1 9.72 0v31.07a4.86 4.86 0 0 1-9.72 0zm-24.3 20.4a4.86 4.86 0 0 1 9.72 0v100.02a4.86 4.86 0 0 1-9.72 0zm-24.31-20.4a4.86 4.86 0 0 1 9.72 0v65.06a4.86 4.86 0 0 1-9.72 0zm-24.3-4.85a4.86 4.86 0 0 1 9.72 0v7.76a4.86 4.86 0 0 1-9.72 0zM218.75 4.86a4.86 4.86 0 0 1 9.72 0v95.16a4.86 4.86 0 0 1-9.72 0zm-24.31 81.57a4.86 4.86 0 0 1 9.72 0v39.81a4.86 4.86 0 0 1-9.72 0zm-24.3 8.74a4.86 4.86 0 0 1 9.72 0v65.06a4.86 4.86 0 0 1-9.72 0zm-24.31 56.33a4.86 4.86 0 0 1 9.72 0v39.81a4.86 4.86 0 0 1-9.72 0zm-24.3-17.48a4.86 4.86 0 0 1 9.72 0v7.76a4.86 4.86 0 0 1-9.72 0zm-24.31-15.54a4.86 4.86 0 0 1 9.72 0v90.31a4.86 4.86 0 0 1-9.72 0zm-24.3 44.67a4.86 4.86 0 0 1 9.72 0v100.99a4.86 4.86 0 0 1-9.72 0zM48.61 90.32a4.86 4.86 0 0 1 9.72 0v84.48a4.86 4.86 0 0 1-9.72 0zm-24.3 28.16a4.86 4.86 0 0 1 9.72 0v39.81a4.86 4.86 0 0 1-9.72 0zM0 86.43a4.86 4.86 0 0 1 9.72 0v39.81a4.86 4.86 0 0 1-9.72 0z"/></g></g></svg>