<svg xmlns="http://www.w3.org/2000/svg" xmlns:xlink="http://www.w3.org/1999/xlink" viewBox="0 0 296.4 88.9"><defs><style>.cls-1{fill:none;}.cls-2{clip-path:url(#clip-path);}.cls-3{fill:url(#radial-gradient);}.cls-4{clip-path:url(#clip-path-2);}.cls-5{fill:url(#radial-gradient-2);}.cls-6{fill:#2e3190;}</style><clipPath id="clip-path"><path class="cls-1" d="M59,72.5a15,15,0,0,0,30,0A29.92,29.92,0,0,0,59.1,42.6V72.5Z"/></clipPath><radialGradient id="radial-gradient" cx="-616.71" cy="-1.41" r="1" gradientTransform="matrix(2.52, -51.77, 51.77, 2.52, 1700.37, -31844.32)" gradientUnits="userSpaceOnUse"><stop offset="0" stop-color="#fff129"/><stop offset="0.24" stop-color="#fdde36"/><stop offset="0.72" stop-color="#f9af56"/><stop offset="1" stop-color="#f9af56"/></radialGradient><clipPath id="clip-path-2"><path class="cls-1" d="M25.6,43.5c0,16,14,28.9,31.2,28.9V42.5c0-16-14-28.9-31.2-28.9Z"/></clipPath><radialGradient id="radial-gradient-2" cx="-605.59" cy="-19.19" r="1" gradientTransform="matrix(30.61, 52.37, -52.37, 30.61, 17555.7, 32318.69)" gradientUnits="userSpaceOnUse"><stop offset="0" stop-color="#44b77b"/><stop offset="0.09" stop-color="#44b77b"/><stop offset="0.2" stop-color="#42ac7d"/><stop offset="0.41" stop-color="#3d8e81"/><stop offset="0.68" stop-color="#355f89"/><stop offset="0.91" stop-color="#2e3190"/><stop offset="1" stop-color="#2e3190"/></radialGradient></defs><title>logo</title><g id="Layer_2" data-name="Layer 2"><g id="Layer_1-2" data-name="Layer 1"><g class="cls-2"><polygon class="cls-3" points="56.9 87.3 59.1 41.1 91.2 42.6 88.9 88.9 56.9 87.3"/></g><g class="cls-4"><polygon class="cls-5" points="48.8 0 82.3 57.4 33.5 85.9 0 28.6 48.8 0"/></g><path class="cls-6" d="M125.3,30.9h4.4v9.9a16.11,16.11,0,0,1-4.5,2.4,18.9,18.9,0,0,1-5.3.8,14.68,14.68,0,0,1-6.9-1.7,12.47,12.47,0,0,1-4.8-4.6,12,12,0,0,1-1.7-6.6,13.51,13.51,0,0,1,1.7-6.6,13.24,13.24,0,0,1,4.8-4.6,14.68,14.68,0,0,1,6.9-1.7,14.84,14.84,0,0,1,5.7,1,11.92,11.92,0,0,1,4.3,3L127,25a9.35,9.35,0,0,0-6.9-2.8,10.18,10.18,0,0,0-4.7,1.1,8,8,0,0,0-3.2,3.1A8.77,8.77,0,0,0,111,31a8.41,8.41,0,0,0,1.2,4.5,8,8,0,0,0,3.2,3.1,9.08,9.08,0,0,0,4.7,1.1,9.45,9.45,0,0,0,5.1-1.3V30.9Zm4.3,4.4h-7.2V30.9h7.2Z"/><path class="cls-6" d="M159.8,37.9H147.3l-2.5,5.8H140l11.2-24.9h4.6l11.3,24.9h-4.8Zm-1.6-3.6-4.7-10.9-4.7,10.9Z"/><polygon class="cls-6" points="200.3 18.7 200.3 43.7 196.5 43.7 182.7 26.8 182.7 43.7 178.1 43.7 178.1 18.7 181.9 18.7 195.7 35.6 195.7 18.7 200.3 18.7"/><polygon class="cls-6" points="233.5 39.8 233.5 43.7 214.8 43.7 214.8 18.7 233 18.7 233 22.6 219.4 22.6 219.4 29.1 231.5 29.1 231.5 32.9 219.4 32.9 219.4 39.8 233.5 39.8"/><polygon class="cls-6" points="125.2 78.4 125.2 82.3 106.4 82.3 106.4 57.4 124.7 57.4 124.7 61.2 111.1 61.2 111.1 67.7 123.1 67.7 123.1 71.5 111.1 71.5 111.1 78.4 125.2 78.4"/><polygon class="cls-6" points="160.4 57.4 160.4 82.3 156.5 82.3 142.8 65.4 142.8 82.3 138.2 82.3 138.2 57.4 142 57.4 155.8 74.3 155.8 57.4 160.4 57.4"/><polygon class="cls-6" points="193.6 78.4 193.6 82.3 174.9 82.3 174.9 57.4 193.1 57.4 193.1 61.2 179.5 61.2 179.5 67.7 191.6 67.7 191.6 71.5 179.5 71.5 179.5 78.4 193.6 78.4"/><path class="cls-6" d="M223,82.3,217.9,75h-6.6v7.3h-4.6v-25H217a14.48,14.48,0,0,1,5.7,1.1,8.16,8.16,0,0,1,5,7.8,8.81,8.81,0,0,1-1.4,4.9,7.4,7.4,0,0,1-3.9,3l5.7,8.2Zm-1.7-19.7a6.83,6.83,0,0,0-4.6-1.3h-5.4v9.9h5.4a6.83,6.83,0,0,0,4.6-1.3,4.75,4.75,0,0,0,1.6-3.7,4.39,4.39,0,0,0-1.6-3.6"/><path class="cls-6" d="M257.6,69.5H262v9.9a16.11,16.11,0,0,1-4.5,2.4,18.9,18.9,0,0,1-5.3.8,14.68,14.68,0,0,1-6.9-1.7,12.3,12.3,0,0,1-6.5-11.2,13.51,13.51,0,0,1,1.7-6.6,13.24,13.24,0,0,1,4.8-4.6,14.68,14.68,0,0,1,6.9-1.7,14.84,14.84,0,0,1,5.7,1,11.92,11.92,0,0,1,4.3,3l-2.9,2.9a9.44,9.44,0,0,0-6.9-2.9,10.18,10.18,0,0,0-4.7,1.1,8,8,0,0,0-3.2,3.1,8.77,8.77,0,0,0-1.2,4.6,8.41,8.41,0,0,0,1.2,4.5,8,8,0,0,0,3.2,3.1,9.08,9.08,0,0,0,4.7,1.1,9.45,9.45,0,0,0,5.1-1.3V69.5Zm-2.5,0h6.8v4.4h-6.8Z"/><polygon class="cls-6" points="286.7 73.5 286.7 82.3 282 82.3 282 73.6 272.2 57.4 277.2 57.4 284.5 69.5 291.9 57.4 296.4 57.4 286.7 73.5"/></g></g></svg>