<svg xmlns="http://www.w3.org/2000/svg" xmlns:xlink="http://www.w3.org/1999/xlink" width="55px" height="16px" viewBox="0 0 55 16" version="1.1">
    <!-- Generator: Sketch 60 (88103) - https://sketch.com -->
    <title>logo/true</title>
    <desc>Created with Sketch.</desc>
    <g id="UI-Kit-(Symbols)" stroke="none" stroke-width="1" fill="none" fill-rule="evenodd">
        <g id="Footer" transform="translate(-1236.000000, -356.000000)" fill="#18194E">
            <g id="footer/B-with-sitemap" transform="translate(148.000000, 79.000000)">
                <g id="footer/A-simple" transform="translate(0.000000, 277.000000)">
                    <path d="M1131.6086,3.26664391 C1133.28836,3.26664391 1134.65827,3.80744281 1135.71831,4.88904063 C1136.77835,5.97063844 1137.30838,7.31444191 1137.30838,8.92045067 C1137.30838,9.51041311 1137.23499,10.1167635 1137.08821,10.7395015 L1128.57524,10.7395015 C1128.78725,11.5097302 1129.19088,12.1037897 1129.78614,12.5216798 C1130.38139,12.9395698 1131.11935,13.1485149 1132,13.1485149 C1133.19051,13.1485149 1134.31579,12.7388186 1135.37583,11.9194264 L1136.74574,14.1809491 C1135.3106,15.3936496 1133.69607,16 1131.90215,16 C1129.99407,16 1128.41216,15.3895529 1127.15641,14.1686582 C1125.90067,12.9477636 1125.27279,11.4359849 1125.27279,9.63332195 C1125.27279,7.84704665 1125.88028,6.33936497 1127.09526,5.11027654 C1128.31023,3.88118812 1129.81468,3.26664391 1131.6086,3.26664391 Z M1140.74944,11.4277911 C1141.38547,11.4277911 1141.91957,11.649027 1142.35174,12.0914988 C1142.78391,12.5339706 1143,13.0747695 1143,13.7138955 C1143,14.3694095 1142.78799,14.9143051 1142.36397,15.3485831 C1141.93996,15.7828612 1141.40178,16 1140.74944,16 C1140.09711,16 1139.55078,15.7828612 1139.11045,15.3485831 C1138.67013,14.9143051 1138.44996,14.3694095 1138.44996,13.7138955 C1138.44996,13.0747695 1138.67013,12.5339706 1139.11045,12.0914988 C1139.55078,11.649027 1140.09711,11.4277911 1140.74944,11.4277911 Z M1115.76501,3.53704336 L1115.76501,10.6165927 C1115.76501,11.3212702 1115.9811,11.8866509 1116.41327,12.3127347 C1116.84544,12.7388186 1117.39585,12.9518607 1118.06449,12.9518607 C1118.70052,12.9518607 1119.23462,12.7388186 1119.66679,12.3127347 C1120.09896,11.8866509 1120.31505,11.3212702 1120.31505,10.6165927 L1120.31505,3.53704336 L1123.61749,3.53704336 L1123.61749,10.3461932 C1123.61749,12.0341415 1123.09155,13.3984296 1122.03966,14.4390577 C1120.98777,15.4796858 1119.66271,16 1118.06449,16 C1116.43365,16 1115.09229,15.4837829 1114.0404,14.4513486 C1112.98851,13.4189143 1112.46256,12.0505291 1112.46256,10.3461932 L1112.46256,3.53704336 L1115.76501,3.53704336 Z M1102.77223,2.94875235e-13 L1102.77223,3.54306398 L1097.51988,3.54306398 L1097.51988,15.9437879 L1094.01832,15.9437879 L1094.01832,2.94875235e-13 L1102.77223,2.94875235e-13 Z M1110.26909,3.38955275 C1110.6768,3.38955275 1111.03558,3.43871629 1111.34544,3.53704336 L1111.34544,6.46227381 L1110.46479,6.46227381 C1109.46998,6.46227381 1108.67902,6.72857618 1108.09192,7.26118129 C1107.50482,7.7937864 1107.21127,8.5844997 1107.21127,9.63332195 L1107.21127,15.7050188 L1103.90882,15.7050188 L1103.90882,3.53704336 L1106.94218,3.53704336 L1106.94218,5.01194947 C1107.77391,3.93035166 1108.88288,3.38955275 1110.26909,3.38955275 Z M1131.48629,5.94605667 C1130.78503,5.94605667 1130.17346,6.16729259 1129.65159,6.60976442 C1129.12973,7.05223626 1128.77094,7.6503925 1128.57524,8.40423353 L1134.10378,8.40423353 C1134.08747,7.6503925 1133.82654,7.05223626 1133.32098,6.60976442 C1132.81542,6.16729259 1132.20385,5.94605667 1131.48629,5.94605667 Z M1090.19029,0.0124985733 C1091.39996,0.0124985733 1092.38058,1.01773027 1092.38058,2.25775126 C1092.38058,3.49777224 1091.39996,4.50300394 1090.19029,4.50300394 C1088.98063,4.50300394 1088,3.49777224 1088,2.25775126 C1088,1.01773027 1088.98063,0.0124985733 1090.19029,0.0124985733 Z" id="logo/true"/>
                </g>
            </g>
        </g>
    </g>
</svg>